<svg xmlns="http://www.w3.org/2000/svg" viewBox="0 0 206 64" aria-label="Lace"><g fill="none" stroke="#9bb0e8" stroke-width="6" stroke-linecap="round" stroke-linejoin="round"><path d="M4 19 L12.6 19.06 L13.5 19.36 L14.4 19.91 L15.3 20.71 L16.2 21.73 L17.1 22.95 L18 24.36 L18.9 25.92 L19.8 27.6 L20.7 29.36 L21.6 31.18 L22.5 33.02 L23.4 34.84 L24.3 36.6 L25.2 38.26 L26.1 39.81 L27 41.19 L27.9 42.4 L28.8 43.39 L29.7 44.16 L30.6 44.69 L31.5 44.96 L32.4 44.97 L33.3 44.73 L34.2 44.23 L35.1 43.49 L36 42.52 L36.9 41.34 L37.2 40.9"/><path d="M46.8 23.1 L47.7 21.85 L48.6 20.81 L49.5 19.99 L50.4 19.41 L51.3 19.08 L52 19 L60 19"/><path d="M4 45 L12.6 44.94 L13.5 44.64 L14.4 44.09 L15.3 43.29 L16.2 42.27 L17.1 41.05 L17.1 41.05"/><path d="M26.7 23.25 L27.6 21.98 L28.5 20.92 L29.4 20.07 L30.3 19.46 L31.2 19.1 L32.1 19 L33 19.16 L33.9 19.57 L34.8 20.24 L35.7 21.13 L36.6 22.25 L37.5 23.56 L38.4 25.03 L39.3 26.65 L40.2 28.37 L41.1 30.17 L42 32 L42.9 33.83 L43.8 35.63 L44.7 37.35 L45.6 38.97 L46.5 40.44 L47.4 41.75 L48.3 42.87 L49.2 43.76 L50.1 44.43 L51 44.84 L51.9 45 L60 45"/></g><path fill="#f4efe6" d="M112.643 51.0H109.295H106.78399999999999H94.931H90.26H82.376V47.841L85.616 46.896V17.412L82.376 16.413000000000004V13.308H99.359V16.089L94.931 17.412V45.546H106.622L110.213 41.82H114.074Z M133.541 36.771Q131.543 37.095 130.139 37.473Q128.276 37.986000000000004 127.31750000000001 38.62050000000001Q126.35900000000001 39.255 126.0215 40.065Q125.684 40.875 125.684 41.955Q125.684 43.872 126.494 44.736000000000004Q127.304 45.6 129.167 45.6Q130.436 45.6 131.435 45.1275Q132.434 44.655 132.9875 43.791Q133.541 42.927 133.541 41.82ZM133.487 47.652Q131.138 50.595 128.951 51.27Q127.52000000000001 51.729 125.495 51.729Q121.607 51.729 119.447 49.730999999999995Q117.287 47.733 117.287 43.791Q117.287 41.712 117.97550000000001 40.092Q118.664 38.472 120.5675 37.149Q122.471 35.826 126.06200000000001 34.772999999999996Q129.059 33.909 133.541 33.099000000000004V30.912Q133.541 28.239 132.461 26.916Q131.46200000000002 25.701 129.275 25.782Q127.46600000000001 25.863 126.79100000000001 26.214Q125.765 26.781 125.144 27.888Q124.982 28.185 124.577 29.454Q124.226 30.534 123.281 30.939Q122.363 31.317 120.878 31.317Q119.20400000000001 31.317 118.367 30.642Q117.53 29.967 117.53 28.914Q117.53 27.753 118.583 26.457Q119.63600000000001 25.161 121.5665 24.0Q123.497 22.839 126.10249999999999 22.11Q128.708 21.381 131.84 21.381Q135.647 21.381 137.8745 22.5285Q140.102 23.676000000000002 141.074 25.8225Q142.046 27.969 142.046 30.939V44.007Q142.046 44.952 142.3025 45.492Q142.559 46.032 143.04500000000002 46.2885Q143.531 46.545 144.314 46.545Q144.8 46.545 145.36700000000002 46.437Q145.934 46.329 146.609 46.14V49.137Q145.124 50.298 143.39600000000002 50.9865Q141.668 51.675 139.913 51.675Q137.888 51.675 136.268 50.784Q134.405 49.785 133.487 47.652Z M164.05100000000002 21.354Q167.42600000000002 21.354 169.775 22.164Q171.96200000000002 22.893 172.853 24.0Q175.60700000000003 27.456 171.8 29.4Q169.69400000000002 30.453 168.64100000000002 29.346Q165.42800000000003 25.539 161.94500000000002 25.539Q160.163 25.539 158.8535 26.403Q157.544 27.267 156.815 29.1705Q156.086 31.074 156.086 34.260000000000005Q156.086 38.04 157.00400000000002 40.3755Q157.92200000000003 42.711 159.79850000000002 43.791Q161.675 44.871 164.61800000000002 44.871Q166.88600000000002 44.871 168.85700000000003 44.4255Q170.828 43.980000000000004 172.853 43.089L173.096 46.383Q170.747 48.273 168.76250000000002 49.461Q166.77800000000002 50.649 165.03650000000002 51.189Q163.29500000000002 51.729 161.70200000000003 51.729Q157.49 51.729 154.45250000000001 50.0145Q151.41500000000002 48.3 149.78150000000002 45.0195Q148.14800000000002 41.739000000000004 148.14800000000002 37.068Q148.14800000000002 33.585 149.1875 30.7095Q150.227 27.834 152.2385 25.741500000000002Q154.25 23.649 157.2335 22.5015Q160.217 21.354 164.05100000000002 21.354Z M194.264 32.829Q194.156 30.696 193.77800000000002 29.346Q193.23800000000003 27.564 192.19850000000002 26.8215Q191.15900000000002 26.079 189.59300000000002 26.079Q187.89200000000002 26.079 186.74450000000002 26.889000000000003Q185.597 27.699 184.97600000000003 29.562Q184.544 30.912 184.436 32.991ZM190.079 21.354Q194.23700000000002 21.354 196.91000000000003 23.028Q199.58300000000003 24.702 200.91950000000003 28.131Q202.25600000000003 31.56 202.418 36.852000000000004H184.49Q184.67900000000003 39.120000000000005 185.354 40.686Q186.32600000000002 42.954 188.31050000000002 43.9935Q190.29500000000002 45.033 193.42700000000002 45.033Q195.04700000000003 45.033 196.478 44.817Q197.90900000000002 44.601 199.2185 44.223Q200.52800000000002 43.845 201.74300000000002 43.359L201.98600000000002 46.41Q199.79900000000004 48.165 197.77400000000003 49.3665Q195.74900000000002 50.568 193.88600000000002 51.1485Q192.02300000000002 51.729 190.32200000000003 51.729Q185.97500000000002 51.729 182.87 49.9875Q179.76500000000001 48.246 178.10450000000003 44.952Q176.44400000000002 41.658 176.44400000000002 37.013999999999996Q176.44400000000002 32.316 178.0505 28.779000000000003Q179.657 25.242 182.6945 23.298000000000002Q185.73200000000003 21.354 190.079 21.354Z"/></svg>
